<?xml version="1.0" encoding="UTF-8"?>
<svg xmlns="http://www.w3.org/2000/svg" xmlns:xlink="http://www.w3.org/1999/xlink" viewBox="530 0 467 467">
  <defs>
    <linearGradient id="b" x1="852.47" y1="233.49" x2="949.94" y2="233.49" gradientUnits="userSpaceOnUse">
      <stop offset="0" stop-color="#cf5353" />
      <stop offset="1" stop-color="#b30b0b" />
    </linearGradient>
    <linearGradient id="c" x1="674.94" y1="233.49" x2="852.47" y2="233.49" gradientUnits="userSpaceOnUse">
      <stop offset="0" stop-color="#cf5353" />
      <stop offset="1" stop-color="#b30b0b" />
    </linearGradient>
    <linearGradient id="d" x1="762.79" y1="413.07" x2="762.79" y2="493.87" xlink:href="#b" />
    <linearGradient id="e" x1="762.79" y1="9.25" x2="762.79" y2="61.92" xlink:href="#b" />
  </defs>
  <path
    fill="#b30b0b"
    d="M575.65,10.44V30.3h33.63c11.25,0,20.37,9.12,20.37,20.37V416.3c0,11.25-9.12,20.37-20.37,20.37h-33.63v19.86h99.3V10.44h-99.3Z"
  />
  <path
    fill="url(#b)"
    d="M918.76,30.3h31.17V10.44h-97.47V456.53h97.47v-19.86h-31.17c-11.25,0-20.37-9.12-20.37-20.37V50.67c0-11.25,9.12-20.37,20.37-20.37Z"
  />
  <path
    fill="url(#c)"
    d="M674.94,10.44V456.53h177.52V10.44h-177.52Zm108.12,426.23h-38.07c-11.25,0-20.37-9.12-20.37-20.37V50.67c0-11.25,9.12-20.37,20.37-20.37h38.07c11.25,0,20.37,9.12,20.37,20.37V416.3c0,11.25-9.12,20.37-20.37,20.37Z"
  />
  <path
    fill="url(#d)"
    d="M879.15,433.65l-26.68-17.85-26.68,17.85c-13.31,8.91-28.96,13.66-44.97,13.66h-34.21c-16.01,0-31.66-4.75-44.97-13.66l-26.68-17.85-26.68,17.85c-13.31,8.91-28.96,13.66-44.97,13.66h-27.64v10.24h374.29v-10.24h-25.82c-16.01,0-31.66-4.75-44.97-13.66Z"
  />
  <path
    fill="url(#e)"
    d="M879.15,33.33l-26.68,17.85-26.68-17.85c-13.31-8.91-28.96-13.66-44.97-13.66h-34.21c-16.01,0-31.66,4.75-44.97,13.66l-26.68,17.85-26.68-17.85c-13.31-8.91-28.96-13.66-44.97-13.66h-27.64V9.43h374.29v10.24h-25.82c-16.01,0-31.66,4.75-44.97,13.66Z"
  />
</svg>
