<?xml version="1.0" encoding="UTF-8"?><svg id="a" xmlns="http://www.w3.org/2000/svg" xmlns:xlink="http://www.w3.org/1999/xlink" viewBox="0 0 1496.35 466.97"><defs><style>.f{letter-spacing:.01em;}.g{letter-spacing:.02em;}.h{letter-spacing:-.07em;}.i{fill:#b30b0b;}.j{letter-spacing:0em;}.k{fill:url(#c);}.l{fill:url(#b);}.m{fill:url(#d);}.n{fill:url(#e);}.o{fill:#ffd568;font-family:TrajanPro-Bold, Trajan Pro;font-size:135.49px;stroke:#ffd568;stroke-miterlimit:10;stroke-width:3.99px;}.p{fill:none;}.q{letter-spacing:.02em;}.r{letter-spacing:0em;}</style><linearGradient id="b" x1="852.47" y1="233.49" x2="949.94" y2="233.49" gradientTransform="matrix(1, 0, 0, 1, 0, 0)" gradientUnits="userSpaceOnUse"><stop offset="0" stop-color="#cf5353"/><stop offset="1" stop-color="#b30b0b"/></linearGradient><linearGradient id="c" x1="674.94" y1="233.49" x2="852.47" y2="233.49" gradientTransform="matrix(1, 0, 0, 1, 0, 0)" gradientUnits="userSpaceOnUse"><stop offset="0" stop-color="#cf5353"/><stop offset="1" stop-color="#b30b0b"/></linearGradient><linearGradient id="d" x1="762.79" y1="413.07" x2="762.79" y2="493.87" xlink:href="#b"/><linearGradient id="e" x1="762.79" y1="9.25" x2="762.79" y2="61.92" xlink:href="#b"/></defs><g><rect class="p" x="724.62" y="30.3" width="78.81" height="406.36" rx="20.37" ry="20.37"/><path class="i" d="M575.65,10.44V30.3h33.63c11.25,0,20.37,9.12,20.37,20.37V416.3c0,11.25-9.12,20.37-20.37,20.37h-33.63v19.86h99.3V10.44h-99.3Z"/><path class="l" d="M918.76,30.3h31.17V10.44h-97.47V456.53h97.47v-19.86h-31.17c-11.25,0-20.37-9.12-20.37-20.37V50.67c0-11.25,9.12-20.37,20.37-20.37Z"/><path class="k" d="M674.94,10.44V456.53h177.52V10.44h-177.52Zm108.12,426.23h-38.07c-11.25,0-20.37-9.12-20.37-20.37V50.67c0-11.25,9.12-20.37,20.37-20.37h38.07c11.25,0,20.37,9.12,20.37,20.37V416.3c0,11.25-9.12,20.37-20.37,20.37Z"/><path class="m" d="M879.15,433.65l-26.68-17.85-26.68,17.85c-13.31,8.91-28.96,13.66-44.97,13.66h-34.21c-16.01,0-31.66-4.75-44.97-13.66l-26.68-17.85-26.68,17.85c-13.31,8.91-28.96,13.66-44.97,13.66h-27.64v10.24h374.29v-10.24h-25.82c-16.01,0-31.66-4.75-44.97-13.66Z"/><path class="n" d="M879.15,33.33l-26.68,17.85-26.68-17.85c-13.31-8.91-28.96-13.66-44.97-13.66h-34.21c-16.01,0-31.66,4.75-44.97,13.66l-26.68,17.85-26.68-17.85c-13.31-8.91-28.96-13.66-44.97-13.66h-27.64V9.43h374.29v10.24h-25.82c-16.01,0-31.66,4.75-44.97,13.66Z"/></g><text class="o" transform="translate(28.17 290.4)"><tspan class="f" x="0" y="0">M</tspan><tspan class="r" x="142.67" y="0">I</tspan><tspan x="202.55" y="0">C</tspan><tspan class="r" x="310.94" y="0">R</tspan><tspan class="q" x="411.88" y="0">O</tspan></text><text class="o" transform="translate(949.94 290.4)"><tspan x="0" y="0">M</tspan><tspan class="r" x="141.31" y="0">A</tspan><tspan class="h" x="234.8" y="0">N</tspan><tspan class="j" x="354.16" y="0">I</tspan><tspan class="g" x="415.4" y="0">A</tspan></text></svg>